<?xml version="1.0" encoding="UTF-8"?>
<svg xmlns="http://www.w3.org/2000/svg" xmlns:xlink="http://www.w3.org/1999/xlink" width="267.3154pt" height="56.8347pt" viewBox="0 0 267.3154 56.8347" version="1.1">
<g id="surface1">
<path style=" stroke:none;fill-rule:nonzero;fill:rgb(13.729858%,12.159729%,12.548828%);fill-opacity:1;" d="M 59.707031 32.054688 L 59.933594 34.878906 C 60.796875 36.351562 63.296875 37.347656 64.964844 37.347656 C 67.691406 37.347656 70 35.902344 70 33.113281 C 70 31.734375 69.164062 30.675781 67.339844 30.128906 L 62.851562 28.785156 C 60.15625 27.980469 58.167969 26.089844 58.167969 23.332031 C 58.167969 18.203125 61.984375 16.246094 66.632812 16.246094 C 68.621094 16.246094 70.738281 16.597656 72.597656 17.335938 L 72.757812 17.722656 C 72.4375 18.746094 72.308594 20.605469 72.308594 22.277344 L 70.996094 22.277344 L 70.800781 19.644531 C 69.839844 18.554688 68.042969 17.882812 66.535156 17.882812 C 63.554688 17.882812 62.144531 19.613281 62.144531 21.761719 C 62.144531 23.203125 63.167969 24.261719 65.542969 24.871094 L 69.199219 25.832031 C 72.148438 26.601562 74.039062 28.464844 74.039062 31.347656 C 74.039062 36.800781 69.519531 39.078125 64.644531 39.078125 C 62.335938 39.078125 59.996094 38.597656 57.941406 37.601562 C 58.328125 35.710938 58.421875 33.882812 58.421875 32.054688 Z M 59.707031 32.054688 "/>
<path style=" stroke:none;fill-rule:nonzero;fill:rgb(13.729858%,12.159729%,12.548828%);fill-opacity:1;" d="M 75.714844 28.304688 C 75.714844 26.476562 75.652344 26.121094 74.882812 26.058594 L 73.441406 25.960938 L 73.441406 24.808594 C 75.652344 24.742188 77.542969 24.039062 79.4375 23.429688 L 79.628906 23.621094 L 79.628906 26.027344 L 82.195312 24.039062 C 82.996094 23.429688 83.925781 23.429688 84.632812 23.429688 C 86.488281 23.429688 88.09375 24.230469 88.703125 26.027344 L 91.269531 24.039062 C 92.070312 23.429688 93 23.429688 93.707031 23.429688 C 97.105469 23.429688 98.164062 25.128906 98.164062 29.363281 L 98.164062 35.324219 C 98.164062 36.09375 98.195312 36.511719 98.292969 36.832031 C 98.386719 37.152344 98.644531 37.3125 99.316406 37.378906 L 100.375 37.441406 L 100.375 38.628906 C 99.21875 38.597656 98.257812 38.53125 97.230469 38.53125 C 96.238281 38.53125 95.242188 38.597656 94.25 38.628906 L 94.25 29.90625 C 94.25 28.335938 93.992188 27.5 93.417969 26.925781 C 92.871094 26.378906 92.167969 26.1875 91.398438 26.1875 C 90.082031 26.1875 88.894531 27.4375 88.894531 28.367188 L 88.894531 35.324219 C 88.894531 36.09375 88.925781 36.511719 89.023438 36.832031 C 89.121094 37.152344 89.378906 37.3125 90.050781 37.378906 L 91.171875 37.441406 L 91.171875 38.628906 C 89.792969 38.597656 88.445312 38.53125 86.84375 38.53125 C 85.433594 38.53125 84.085938 38.597656 82.835938 38.628906 L 82.835938 37.441406 L 83.828125 37.378906 C 84.503906 37.347656 84.757812 37.152344 84.855469 36.832031 C 84.949219 36.511719 84.984375 36.09375 84.984375 35.324219 L 84.984375 29.90625 C 84.984375 28.335938 84.726562 27.5 84.148438 26.925781 C 83.605469 26.378906 82.898438 26.1875 82.128906 26.1875 C 80.816406 26.1875 79.628906 27.4375 79.628906 28.367188 L 79.628906 35.324219 C 79.628906 36.09375 79.660156 36.511719 79.757812 36.832031 C 79.851562 37.152344 80.109375 37.3125 80.78125 37.378906 L 81.648438 37.441406 L 81.648438 38.628906 C 80.527344 38.597656 79.179688 38.53125 77.574219 38.53125 C 76.164062 38.53125 74.820312 38.597656 73.441406 38.628906 L 73.441406 37.441406 L 74.5625 37.378906 C 75.234375 37.3125 75.492188 37.152344 75.589844 36.832031 C 75.683594 36.511719 75.714844 36.09375 75.714844 35.324219 Z M 75.714844 28.304688 "/>
<path style=" stroke:none;fill-rule:nonzero;fill:rgb(13.729858%,12.159729%,12.548828%);fill-opacity:1;" d="M 101.335938 28.304688 C 101.335938 26.476562 101.273438 26.121094 100.503906 26.058594 L 99.0625 25.960938 L 99.0625 24.808594 C 100.277344 24.648438 101.496094 24.519531 102.683594 24.132812 L 104.929688 23.429688 L 105.25 23.621094 L 105.25 31.992188 C 105.25 34.074219 105.378906 36.191406 107.847656 36.191406 C 108.9375 36.191406 109.960938 35.488281 110.539062 34.554688 C 110.765625 34.203125 110.828125 33.722656 110.828125 33.304688 L 110.828125 28.304688 C 110.828125 26.476562 110.765625 26.121094 109.996094 26.058594 L 108.550781 25.960938 L 108.550781 24.808594 C 109.773438 24.648438 110.988281 24.519531 112.175781 24.132812 L 114.417969 23.429688 L 114.742188 23.621094 L 114.742188 35.324219 C 114.742188 36.09375 114.773438 36.511719 114.867188 36.832031 C 114.964844 37.152344 115.222656 37.3125 115.894531 37.378906 L 116.953125 37.441406 L 116.953125 38.628906 C 115.640625 38.597656 114.292969 38.53125 113.394531 38.53125 C 112.851562 38.53125 111.949219 38.597656 110.667969 38.628906 L 110.828125 35.96875 L 108.394531 38.339844 C 107.941406 38.789062 107.109375 39.078125 106.339844 39.078125 C 102.8125 39.078125 101.335938 37.089844 101.335938 34.042969 Z M 101.335938 28.304688 "/>
<path style=" stroke:none;fill-rule:nonzero;fill:rgb(13.729858%,12.159729%,12.548828%);fill-opacity:1;" d="M 120.191406 28.304688 C 120.191406 26.476562 120.128906 26.121094 119.359375 26.058594 L 117.917969 25.960938 L 117.917969 24.808594 C 119.132812 24.648438 120.351562 24.519531 121.539062 24.132812 L 123.78125 23.429688 L 124.105469 23.621094 L 124.105469 26.667969 L 125.515625 25.128906 C 126.445312 24.132812 127.148438 23.429688 128.046875 23.429688 C 128.625 23.429688 129.074219 23.460938 129.425781 23.621094 L 129.265625 27.757812 L 128.5 28.078125 C 128.113281 27.308594 127.4375 26.925781 126.605469 26.925781 C 125.355469 26.925781 124.105469 28.078125 124.105469 28.976562 L 124.105469 35.324219 C 124.105469 36.09375 124.136719 36.511719 124.230469 36.832031 C 124.328125 37.152344 124.96875 37.347656 125.644531 37.378906 L 126.894531 37.441406 L 126.894531 38.628906 C 125.003906 38.597656 123.65625 38.53125 122.050781 38.53125 C 120.640625 38.53125 119.296875 38.597656 117.917969 38.628906 L 117.917969 37.441406 L 119.039062 37.378906 C 119.710938 37.3125 119.96875 37.152344 120.0625 36.832031 C 120.160156 36.511719 120.191406 36.09375 120.191406 35.324219 Z M 120.191406 28.304688 "/>
<path style=" stroke:none;fill-rule:nonzero;fill:rgb(13.729858%,12.159729%,12.548828%);fill-opacity:1;" d="M 141.453125 18.746094 L 140.9375 18.972656 C 140.328125 18.585938 139.59375 18.203125 138.917969 18.203125 C 136.929688 18.203125 136.898438 19.484375 136.898438 21.152344 L 136.898438 24.613281 C 138.34375 24.613281 139.816406 24.550781 141.097656 24.488281 L 141.226562 24.742188 L 140.875 26.601562 L 136.898438 26.601562 L 136.898438 35.324219 C 136.898438 36.09375 136.929688 36.511719 137.027344 36.832031 C 137.121094 37.152344 137.828125 37.347656 138.5 37.378906 L 139.945312 37.441406 L 139.945312 38.628906 C 137.796875 38.597656 136.449219 38.53125 134.847656 38.53125 C 133.433594 38.53125 132.089844 38.597656 130.324219 38.628906 L 130.324219 37.441406 L 131.640625 37.378906 C 132.3125 37.347656 132.761719 37.152344 132.859375 36.832031 C 132.953125 36.511719 132.984375 36.09375 132.984375 35.324219 L 132.984375 26.601562 L 130.453125 26.765625 L 130.453125 25.992188 C 131.351562 25.578125 132.21875 25.097656 132.984375 24.550781 L 132.984375 23.171875 C 132.984375 20.640625 133.144531 20.125 134.75 18.777344 L 137.121094 16.789062 C 138.628906 15.539062 139.304688 15.445312 140.136719 15.445312 C 140.585938 15.445312 141.003906 15.511719 141.453125 15.636719 Z M 141.453125 18.746094 "/>
<path style=" stroke:none;fill-rule:nonzero;fill:rgb(13.729858%,12.159729%,12.548828%);fill-opacity:1;" d="M 148.539062 18.332031 C 148.539062 19.644531 147.414062 20.703125 146.132812 20.703125 C 144.851562 20.703125 143.726562 19.644531 143.726562 18.332031 C 143.726562 16.917969 144.785156 15.894531 146.132812 15.894531 C 147.480469 15.894531 148.539062 16.917969 148.539062 18.332031 M 144.304688 28.304688 C 144.304688 26.476562 144.242188 26.121094 143.472656 26.058594 L 142.027344 25.960938 L 142.027344 24.808594 C 143.246094 24.648438 144.464844 24.519531 145.652344 24.136719 L 147.894531 23.429688 L 148.21875 23.621094 L 148.21875 35.324219 C 148.21875 36.09375 148.25 36.511719 148.347656 36.832031 C 148.441406 37.152344 148.699219 37.3125 149.371094 37.378906 L 150.492188 37.441406 L 150.492188 38.628906 C 149.113281 38.597656 147.769531 38.53125 146.164062 38.53125 C 144.753906 38.53125 143.40625 38.597656 142.027344 38.628906 L 142.027344 37.441406 L 143.152344 37.378906 C 143.824219 37.3125 144.082031 37.152344 144.179688 36.832031 C 144.273438 36.511719 144.304688 36.09375 144.304688 35.324219 Z M 144.304688 28.304688 "/>
<path style=" stroke:none;fill-rule:nonzero;fill:rgb(13.729858%,12.159729%,12.548828%);fill-opacity:1;" d="M 151.414062 26.699219 L 149.359375 26.828125 L 149.359375 26.121094 L 151.476562 24.742188 L 151.476562 22.820312 C 151.476562 21.824219 151.414062 20.863281 151.351562 19.871094 C 152.761719 19.355469 154.300781 18.714844 155.261719 18.265625 L 155.710938 18.589844 C 155.453125 19.871094 155.324219 21.472656 155.324219 22.949219 L 155.324219 24.808594 L 158.980469 24.613281 L 158.726562 26.699219 L 155.324219 26.699219 L 155.324219 34.332031 C 155.324219 35.96875 155.871094 36.417969 157.3125 36.417969 C 157.988281 36.417969 158.339844 36.222656 158.789062 36 L 159.042969 36.609375 L 157.476562 38.5 C 157.25 38.789062 156.542969 39.078125 155.519531 39.078125 C 152.601562 39.078125 151.414062 37.890625 151.414062 35.003906 Z M 151.414062 26.699219 "/>
<path style=" stroke:none;fill-rule:nonzero;fill:rgb(13.729858%,12.159729%,12.548828%);fill-opacity:1;" d="M 167.414062 21.121094 C 167.414062 19.773438 167.386719 18.90625 167.191406 18.523438 C 167.0625 18.265625 166.710938 18.140625 165.875 18.074219 L 164.691406 17.976562 L 164.691406 16.695312 C 166.003906 16.726562 167.769531 16.789062 169.691406 16.789062 C 171.585938 16.789062 173.351562 16.726562 174.664062 16.695312 L 174.664062 17.976562 L 173.476562 18.074219 C 172.644531 18.140625 172.289062 18.265625 172.160156 18.523438 C 171.972656 18.90625 171.9375 19.773438 171.9375 21.121094 L 171.9375 27.054688 C 171.9375 27.183594 172.066406 27.246094 172.226562 27.246094 L 178.253906 21.347656 C 179.023438 20.574219 180.019531 19.453125 180.753906 18.652344 C 181.109375 18.265625 181.269531 17.882812 181.269531 17.496094 L 181.269531 16.695312 C 182.230469 16.726562 183.226562 16.789062 184.1875 16.789062 C 185.148438 16.789062 186.144531 16.726562 187.105469 16.695312 L 187.105469 17.945312 C 185.757812 18.074219 184.539062 18.140625 183.578125 19.035156 L 176.457031 25.671875 L 184.988281 35.710938 C 185.660156 36.511719 186.527344 37.3125 187.90625 37.3125 L 187.90625 38.628906 C 186.816406 38.597656 185.757812 38.53125 184.667969 38.53125 C 183.578125 38.53125 182.488281 38.597656 181.398438 38.628906 L 174.726562 30.644531 C 173.988281 29.746094 172.898438 28.398438 172.289062 28.109375 C 172.035156 28.078125 171.9375 28.269531 171.9375 28.398438 L 171.9375 34.203125 C 171.9375 35.550781 171.972656 36.417969 172.160156 36.800781 C 172.289062 37.058594 172.644531 37.1875 173.476562 37.25 L 174.664062 37.347656 L 174.664062 38.628906 C 173.351562 38.597656 171.585938 38.53125 169.691406 38.53125 C 167.769531 38.53125 166.003906 38.597656 164.691406 38.628906 L 164.691406 37.347656 L 165.875 37.25 C 166.710938 37.1875 167.0625 37.058594 167.191406 36.800781 C 167.386719 36.417969 167.414062 35.550781 167.414062 34.203125 Z M 167.414062 21.121094 "/>
<path style=" stroke:none;fill-rule:nonzero;fill:rgb(13.729858%,12.159729%,12.548828%);fill-opacity:1;" d="M 196.660156 31.058594 L 195.21875 31.445312 C 193.519531 31.925781 192.265625 32.28125 192.265625 34.363281 C 192.265625 35.710938 193.035156 36.289062 194 36.289062 C 194.960938 36.289062 196.277344 35.453125 196.660156 34.84375 Z M 196.660156 29.714844 C 196.660156 27.46875 195.730469 25.929688 193.324219 25.929688 C 192.78125 25.929688 191.65625 26.089844 191.53125 26.378906 L 190.824219 27.980469 L 189.863281 27.757812 L 189.863281 25.546875 L 191.5625 24.519531 C 192.941406 23.683594 194.257812 23.429688 195.28125 23.429688 C 198.101562 23.429688 200.667969 24.679688 200.574219 28.109375 C 200.539062 29.425781 200.476562 30.742188 200.476562 32.054688 C 200.476562 33.371094 200.539062 34.71875 200.574219 36.03125 C 200.605469 36.832031 200.796875 37.28125 201.4375 37.347656 L 202.398438 37.441406 L 202.398438 38.628906 C 201.375 38.597656 200.511719 38.53125 199.578125 38.53125 C 198.683594 38.53125 197.78125 38.597656 196.660156 38.628906 L 196.5 38.371094 L 196.660156 36.382812 L 193.679688 38.691406 C 193.199219 39.078125 192.492188 39.078125 191.914062 39.078125 C 189.542969 39.078125 188.355469 37.441406 188.355469 35.164062 C 188.355469 33.914062 188.738281 32.503906 189.832031 31.765625 C 191.015625 30.964844 192.460938 30.582031 193.839844 30.289062 Z M 196.660156 29.714844 "/>
<path style=" stroke:none;fill-rule:nonzero;fill:rgb(13.729858%,12.159729%,12.548828%);fill-opacity:1;" d="M 207.628906 35.132812 C 208.363281 36.257812 209.550781 36.898438 210.898438 36.898438 C 213.878906 36.898438 214.648438 33.691406 214.648438 31.285156 C 214.648438 28.71875 213.527344 26.316406 210.644531 26.316406 C 209.488281 26.316406 208.203125 26.925781 207.628906 27.917969 Z M 203.714844 28.304688 C 203.714844 26.476562 203.652344 26.121094 202.882812 26.058594 L 201.441406 25.960938 L 201.441406 24.808594 C 202.65625 24.648438 203.875 24.519531 205.0625 24.132812 L 207.308594 23.429688 L 207.628906 23.621094 L 207.628906 26.25 L 209.582031 24.679688 C 210.382812 24.039062 211.25 23.429688 212.917969 23.429688 C 216.316406 23.429688 218.691406 26.027344 218.691406 29.394531 C 218.691406 30.707031 218.371094 32.023438 217.953125 33.082031 C 217.40625 34.492188 216.414062 35.613281 215.613281 36.222656 C 214.84375 36.800781 214.007812 37.507812 213.109375 38.082031 C 212.050781 38.757812 211.25 39.078125 210.484375 39.078125 C 209.488281 39.078125 208.492188 38.789062 207.628906 38.53125 L 207.628906 43.503906 C 207.628906 44.273438 207.660156 44.6875 207.753906 45.011719 C 207.851562 45.332031 208.109375 45.523438 208.78125 45.554688 L 210.226562 45.621094 L 210.226562 46.804688 C 208.523438 46.773438 207.179688 46.710938 205.574219 46.710938 C 204.164062 46.710938 202.816406 46.773438 201.441406 46.804688 L 201.441406 45.621094 L 202.5625 45.554688 C 203.234375 45.492188 203.492188 45.332031 203.585938 45.011719 C 203.683594 44.6875 203.714844 44.273438 203.714844 43.503906 Z M 203.714844 28.304688 "/>
<path style=" stroke:none;fill-rule:nonzero;fill:rgb(13.729858%,12.159729%,12.548828%);fill-opacity:1;" d="M 224.910156 35.132812 C 225.648438 36.257812 226.835938 36.898438 228.183594 36.898438 C 231.164062 36.898438 231.933594 33.691406 231.933594 31.285156 C 231.933594 28.71875 230.8125 26.316406 227.925781 26.316406 C 226.769531 26.316406 225.488281 26.925781 224.910156 27.917969 Z M 221 28.304688 C 221 26.476562 220.933594 26.121094 220.164062 26.058594 L 218.722656 25.960938 L 218.722656 24.808594 C 219.941406 24.648438 221.160156 24.519531 222.347656 24.132812 L 224.59375 23.429688 L 224.910156 23.621094 L 224.910156 26.25 L 226.867188 24.679688 C 227.667969 24.039062 228.535156 23.429688 230.203125 23.429688 C 233.601562 23.429688 235.976562 26.027344 235.976562 29.394531 C 235.976562 30.707031 235.652344 32.023438 235.234375 33.082031 C 234.691406 34.492188 233.695312 35.613281 232.894531 36.222656 C 232.125 36.800781 231.292969 37.507812 230.394531 38.082031 C 229.335938 38.757812 228.535156 39.078125 227.765625 39.078125 C 226.769531 39.078125 225.777344 38.789062 224.910156 38.53125 L 224.910156 43.503906 C 224.910156 44.273438 224.941406 44.6875 225.039062 45.011719 C 225.136719 45.332031 225.390625 45.523438 226.066406 45.554688 L 227.511719 45.621094 L 227.511719 46.804688 C 225.808594 46.773438 224.464844 46.710938 222.859375 46.710938 C 221.449219 46.710938 220.101562 46.773438 218.722656 46.804688 L 218.722656 45.621094 L 219.847656 45.554688 C 220.515625 45.492188 220.773438 45.332031 220.871094 45.011719 C 220.96875 44.6875 221 44.273438 221 43.503906 Z M 221 28.304688 "/>
<path style=" stroke:none;fill-rule:nonzero;fill:rgb(13.729858%,12.159729%,12.548828%);fill-opacity:1;" d="M 244.726562 31.058594 L 243.285156 31.445312 C 241.585938 31.925781 240.335938 32.28125 240.335938 34.363281 C 240.335938 35.710938 241.105469 36.289062 242.066406 36.289062 C 243.03125 36.289062 244.34375 35.453125 244.726562 34.84375 Z M 244.726562 29.714844 C 244.726562 27.46875 243.796875 25.929688 241.390625 25.929688 C 240.847656 25.929688 239.726562 26.089844 239.597656 26.378906 L 238.890625 27.980469 L 237.929688 27.757812 L 237.929688 25.546875 L 239.628906 24.519531 C 241.007812 23.683594 242.324219 23.429688 243.347656 23.429688 C 246.171875 23.429688 248.734375 24.679688 248.640625 28.109375 C 248.609375 29.425781 248.542969 30.742188 248.542969 32.054688 C 248.542969 33.371094 248.609375 34.71875 248.640625 36.03125 C 248.671875 36.832031 248.867188 37.28125 249.503906 37.347656 L 250.46875 37.441406 L 250.46875 38.628906 C 249.441406 38.597656 248.578125 38.53125 247.644531 38.53125 C 246.75 38.53125 245.851562 38.597656 244.726562 38.628906 L 244.566406 38.371094 L 244.726562 36.382812 L 241.746094 38.691406 C 241.265625 39.078125 240.558594 39.078125 239.980469 39.078125 C 237.609375 39.078125 236.421875 37.441406 236.421875 35.164062 C 236.421875 33.914062 236.808594 32.503906 237.898438 31.765625 C 239.082031 30.964844 240.527344 30.582031 241.90625 30.289062 Z M 244.726562 29.714844 "/>
<path style=" stroke:none;fill-rule:nonzero;fill:rgb(0%,60.006714%,87.413025%);fill-opacity:1;" d="M 48.714844 29.605469 C 48.496094 32.59375 47.324219 37.636719 41.921875 37.667969 L 41.910156 37.667969 C 41.902344 37.667969 21.949219 37.671875 21.949219 37.671875 C 16.546875 37.644531 15.375 32.582031 15.15625 29.59375 C 15.105469 29.097656 15.074219 28.40625 15.074219 27.636719 C 15.074219 26.972656 15.097656 26.371094 15.136719 25.894531 C 15.261719 23.046875 16.207031 17.253906 21.761719 17.207031 L 21.761719 17.203125 L 21.839844 17.203125 C 21.90625 17.203125 21.96875 17.203125 22.039062 17.203125 L 33.167969 17.203125 L 41.832031 17.214844 C 41.902344 17.214844 42.109375 17.214844 42.109375 17.214844 L 42.109375 17.21875 C 47.667969 17.265625 48.609375 23.058594 48.734375 25.90625 C 48.773438 26.378906 48.796875 26.984375 48.796875 27.648438 C 48.796875 28.417969 48.765625 29.109375 48.714844 29.605469 M 53.589844 25.765625 C 53.476562 22.652344 52.613281 16.328125 47.542969 16.273438 L 47.46875 16.273438 C 47.40625 16.273438 47.347656 16.269531 47.289062 16.273438 L 16.59375 16.273438 C 16.53125 16.269531 16.472656 16.273438 16.410156 16.273438 L 16.339844 16.273438 C 11.265625 16.328125 10.402344 22.652344 10.289062 25.765625 C 10.253906 26.28125 10.230469 26.945312 10.230469 27.667969 C 10.230469 28.507812 10.261719 29.265625 10.308594 29.804688 C 10.507812 33.070312 11.574219 38.582031 16.511719 38.609375 L 16.511719 38.613281 L 47.367188 38.613281 L 47.367188 38.609375 C 52.304688 38.582031 53.371094 33.070312 53.570312 29.804688 C 53.621094 29.265625 53.648438 28.507812 53.648438 27.667969 C 53.648438 26.945312 53.625 26.28125 53.589844 25.765625 "/>
<path style=" stroke:none;fill-rule:nonzero;fill:rgb(0%,60.006714%,87.413025%);fill-opacity:1;" d="M 36.414062 32.902344 L 45.15625 34.96875 L 45.15625 32.902344 L 36.40625 32.902344 Z M 36.414062 32.902344 "/>
<path style=" stroke:none;fill-rule:nonzero;fill:rgb(0%,60.006714%,87.413025%);fill-opacity:1;" d="M 45.167969 19.707031 C 45.167969 19.664062 45.132812 19.628906 45.089844 19.628906 C 45.085938 19.628906 45.085938 19.628906 45.082031 19.632812 L 45.082031 19.628906 L 18.820312 22.355469 L 18.8125 22.355469 L 18.816406 22.355469 C 18.777344 22.359375 18.746094 22.390625 18.746094 22.433594 C 18.746094 22.464844 18.761719 22.488281 18.789062 22.503906 C 18.792969 22.503906 18.792969 22.503906 18.796875 22.503906 L 18.800781 22.507812 L 18.808594 22.507812 L 30.566406 24.933594 C 31.640625 25.105469 32.433594 25.769531 32.390625 26.511719 C 32.355469 27.074219 31.847656 27.535156 31.128906 27.742188 C 31.097656 27.75 31.070312 27.757812 31.039062 27.765625 C 31.019531 27.769531 31 27.773438 30.980469 27.78125 L 30.671875 27.832031 L 18.824219 29.914062 C 18.78125 29.914062 18.746094 29.949219 18.746094 29.992188 C 18.746094 30.03125 18.78125 30.070312 18.824219 30.070312 C 18.828125 30.070312 18.835938 30.066406 18.839844 30.0625 L 18.839844 30.066406 L 45.109375 27.339844 L 45.109375 27.335938 C 45.140625 27.328125 45.167969 27.296875 45.167969 27.265625 C 45.167969 27.226562 45.136719 27.195312 45.101562 27.1875 L 33.507812 24.808594 C 32.804688 24.644531 32.390625 24.46875 32.152344 24.328125 C 31.726562 24.03125 31.476562 23.628906 31.5 23.199219 C 31.542969 22.523438 32.265625 21.992188 33.21875 21.875 L 45.101562 19.78125 C 45.140625 19.777344 45.167969 19.746094 45.167969 19.707031 "/>
<path style=" stroke:none;fill-rule:nonzero;fill:rgb(0%,60.006714%,87.413025%);fill-opacity:1;" d="M 18.828125 30.671875 L 18.824219 30.671875 L 18.832031 30.671875 Z M 45.105469 35.375 L 33.273438 32.589844 L 33.273438 32.585938 C 32.539062 32.394531 32.023438 31.910156 32.058594 31.371094 C 32.089844 30.84375 32.640625 30.429688 33.371094 30.320312 L 45.105469 27.972656 C 45.136719 27.964844 45.160156 27.9375 45.160156 27.898438 C 45.160156 27.855469 45.125 27.820312 45.082031 27.820312 L 45.074219 27.820312 L 18.824219 30.671875 L 18.8125 30.671875 L 18.816406 30.671875 C 18.777344 30.675781 18.742188 30.707031 18.742188 30.75 C 18.742188 30.777344 18.757812 30.804688 18.785156 30.820312 L 45.082031 35.527344 L 45.085938 35.527344 C 45.128906 35.527344 45.164062 35.492188 45.164062 35.449219 C 45.164062 35.414062 45.140625 35.382812 45.105469 35.375 "/>
</g>
</svg>
